<?xml version="1.0" encoding="utf-8"?>
<!-- Generator: Adobe Illustrator 25.3.1, SVG Export Plug-In . SVG Version: 6.00 Build 0)  -->
<svg version="1.1" id="Layer_1" xmlns="http://www.w3.org/2000/svg" xmlns:xlink="http://www.w3.org/1999/xlink" x="0px" y="0px"
	 viewBox="0 0 355.34 100" style="enable-background:new 0 0 355.34 100;" xml:space="preserve">
<style type="text/css">
	.st0{fill:#3E58A4;}
	.st1{fill:#1B1D34;}
</style>
<path class="st0" d="M49.04,78.33c11.07,0.14,19.6-4.47,24.79-14.2c5.93-11.12,5.11-22.27-1.83-32.7
	c-4.68-7.04-11.75-10.56-20.09-11c-7.26-0.38-14.55-0.17-21.83-0.19c-1.62-0.01-1.67,0.05-1.67,1.82c-0.01,8.08,0,16.16,0.01,24.24
	c0.01,14.4,0.02,28.8,0.03,43.19c0,0.4-0.01,0.8,0,1.2c0.02,0.77-0.29,1.2-1.12,1.19c-3.6-0.02-7.2-0.02-10.8-0.03
	c-0.7,0-1.01-0.36-0.99-1.05c0.01-0.56,0-1.12,0-1.68c0-26.32,0-52.63,0.02-78.95c0-3.03-0.6-2.93,2.97-2.94
	C28.76,7.22,39,7.2,49.23,7.19c6.48-0.01,12.73,1.14,18.58,4.02c11.29,5.57,18.54,14.43,21.46,26.71
	c2.44,10.28,1.8,20.39-2.53,30.05c-4.6,10.25-12.22,17.43-22.9,21.23c-5.1,1.82-10.33,2.73-15.75,2.65
	c-3.68-0.05-7.36,0.03-11.04,0.04c-2.39,0.01-2.37,0.21-2.37-2.32c0.02-10,0.02-20,0.02-30c0-6.72-0.07-13.44,0.01-20.16
	c0.07-5.92,4.09-10.72,9.85-12.01c6.7-1.5,13.68,3.57,14.24,10.44c0.19,2.3,0.07,4.63,0.08,6.95c0.04,7.76-0.02,15.52,0.17,23.27
	c0.07,2.79-0.96,4.52-3.32,5.79C53.39,75.12,51.03,76.43,49.04,78.33z"/>
<path class="st1" d="M137.99,42.41c0-4.9,0-9.2,0-13.5c0-0.56,0.02-1.12,0-1.68c-0.02-0.68,0.22-1.04,0.96-1.03
	c2.4,0.01,4.8-0.01,7.2-0.02c0.56,0,0.91,0.22,0.91,0.83c0,0.48,0,0.96,0,1.44c0,13.84,0,27.68,0,41.52c0,0.48-0.03,0.96,0,1.44
	c0.07,0.95-0.4,1.25-1.29,1.24c-2.08-0.03-4.16-0.06-6.24,0.03c-1.29,0.06-1.75-0.42-1.58-1.67c0.07-0.47,0.01-0.95,0.01-1.42
	c-0.21-0.01-0.44-0.08-0.49-0.01c-3.79,4.87-13.88,5.05-19.48,0.3c-5.15-4.36-7-9.97-6.21-16.52c0.81-6.74,4.19-11.75,10.66-14.12
	C127.88,37.27,133.13,37.78,137.99,42.41z M129.38,64.59c5.02,0.26,8.58-4.51,8.55-8.74c-0.03-5.21-3.74-9.07-8.79-9.03
	c-4.86,0.04-8.41,3.73-8.44,8.78C120.68,61.02,124.13,64.59,129.38,64.59z"/>
<path class="st1" d="M208.3,73.29c-10.22,0.19-17.39-7.75-17.54-17.01c-0.15-9.2,6.27-17.8,17.63-18.08
	c7.76-0.2,17.85,5.47,17.83,17.85C226.2,64.74,219.22,73.53,208.3,73.29z M216.95,55.92c0.03-5.04-3.72-9.1-8.54-9
	c-4.69,0.1-8.36,3.38-8.49,8.52c-0.12,5.07,3.55,9.01,8.43,9.1C213.15,64.64,216.92,60.86,216.95,55.92z"/>
<path class="st1" d="M169.39,73.28c-11.2,0.16-17.67-9.22-17.53-17.58c0.17-10.02,7.62-17.51,17.68-17.48
	c10.16,0.03,17.92,7.68,17.81,17.62C187.24,66,179.18,73.65,169.39,73.28z M161.02,55.61c-0.06,5.03,3.65,8.89,8.59,8.94
	c4.72,0.05,8.59-3.84,8.64-8.67c0.05-4.95-3.75-8.89-8.63-8.97C164.88,46.84,161.08,50.69,161.02,55.61z"/>
<path class="st1" d="M300.94,60.9c1.57,3.52,4.32,4.47,7.72,4.18c0.66-0.06,1.27-0.21,1.82-0.53c1.63-0.95,1.69-2.82,0.12-3.85
	c-1.08-0.7-2.31-1.07-3.54-1.38c-2.24-0.57-4.44-1.25-6.57-2.16c-3.44-1.47-5.64-3.86-5.73-7.78c-0.09-4.07,1.35-7.4,5.06-9.35
	c5.48-2.89,13.11-2.51,17.93,1.84c0.47,0.43,0.92,0.89,1.32,1.38c1.52,1.85,1.51,1.93-0.5,3.06c-0.97,0.54-1.96,1.07-2.94,1.59
	c-0.77,0.41-1.53,1.03-2.34,1.11c-0.84,0.08-0.99-1.11-1.64-1.57c-1.33-0.96-2.8-1.49-4.44-1.55c-0.84-0.03-1.57,0.3-2.21,0.78
	c-1.45,1.09-1.34,2.86,0.32,3.65c1.21,0.58,2.54,0.92,3.83,1.28c1.99,0.56,3.98,1.13,5.88,1.96c3.57,1.56,5.77,4.12,5.95,8.2
	c0.19,4.29-1.17,7.75-5.21,9.66c-5.82,2.74-11.69,2.79-17.45-0.25c-2.05-1.08-3.41-2.83-4.47-4.86c-0.45-0.86-0.53-1.37,0.49-1.87
	C296.47,63.37,298.54,62.19,300.94,60.9z"/>
<path class="st1" d="M336.23,29.6c0,1.58-0.05,3.01,0.01,4.45c0.07,1.58-0.65,3.57,0.33,4.64c1.01,1.1,3.03,0.26,4.59,0.41
	c0.48,0.04,0.96,0.03,1.44,0c0.78-0.04,1.18,0.25,1.17,1.09c-0.02,2-0.03,4,0.02,6c0.02,0.95-0.35,1.27-1.26,1.24
	c-1.68-0.06-3.36-0.01-5.04-0.07c-0.91-0.03-1.29,0.26-1.28,1.22c0.04,4.16-0.02,8.32,0.06,12.48c0.04,2.04,0.82,2.77,2.84,3.23
	c1.19,0.27,2.39,0.2,3.58,0.15c0.8-0.04,1.16,0.23,1.15,1.08c-0.02,2,0.03,4,0.06,6c0.01,0.63-0.16,1.13-0.89,1.15
	c-2.71,0.07-5.45,0.45-8.13-0.15c-4.99-1.11-7.59-4.41-7.71-9.84c-0.1-4.4-0.02-8.8-0.04-13.2c-0.01-2.07-0.02-2.07-2.09-2.09
	c-3.25-0.04-3.25-0.04-3.29-3.29c-0.02-1.28,0.03-2.56-0.02-3.84c-0.05-0.97,0.39-1.28,1.28-1.19c0.32,0.03,0.64,0,0.96,0
	c3.2-0.02,3.2-0.02,3.21-3.33c0-3.7,0-3.7,3.53-4.77c1.6-0.48,3.2-0.95,4.81-1.42C335.65,29.52,335.83,29.57,336.23,29.6z"/>
<path class="st1" d="M265.33,48.46c0-7.27-0.01-14.54,0-21.8c0-2.23,0.03-2.24,2.22-2.25c1.84-0.01,3.67,0.01,5.51-0.04
	c0.94-0.03,1.32,0.35,1.24,1.27c-0.03,0.4-0.01,0.8-0.01,1.2c0.01,14.38,0.02,28.75,0.02,43.13c0,0.48-0.03,0.96,0.01,1.44
	c0.06,0.9-0.28,1.3-1.23,1.28c-2.16-0.04-4.31-0.05-6.47,0.02c-1.14,0.04-1.31-0.55-1.31-1.48c0.02-3.35,0.01-6.71,0.01-10.06
	C265.34,56.93,265.34,52.7,265.33,48.46z"/>
<path class="st1" d="M240.43,43.77c0.53-0.66,1.04-1.34,1.59-1.99c1.94-2.28,4.53-3.15,7.4-3.44c0.81-0.08,1.21,0.22,1.21,1.04
	c0.01,2.56,0.01,5.12,0.04,7.68c0.01,0.79-0.33,1.19-1.14,1.15c-0.48-0.02-0.96,0-1.44,0.02c-4.57,0.19-7.78,3.35-7.88,7.97
	c-0.1,4.64-0.04,9.28-0.04,13.92c0,0.48-0.02,0.96-0.01,1.44c0.02,0.67-0.25,1.09-0.96,1.09c-2.4,0.01-4.8,0-7.2,0
	c-0.58,0-0.89-0.27-0.91-0.85c-0.01-0.4-0.01-0.8-0.01-1.2c0-9.84,0-19.68,0-29.52c0-2-0.23-1.98,1.91-1.97
	c1.92,0.01,3.84,0.02,5.76-0.02c0.89-0.02,1.33,0.25,1.28,1.23c-0.06,1.11-0.01,2.23-0.01,3.34
	C240.15,43.7,240.29,43.74,240.43,43.77z"/>
<path class="st1" d="M280.54,55.76c0-4.88,0-9.75,0-14.63c0-2.21-0.17-2.01,2.11-2.01c1.6,0,3.2-0.01,4.8,0
	c2.11,0.01,2.13,0.01,2.13,2.01c0.02,6.87,0.02,13.75,0.03,20.62c0,2.88-0.02,5.76,0,8.63c0.02,2.39,0.16,2.31-2.38,2.29
	c-1.52-0.01-3.04-0.01-4.56,0c-2.11,0.01-2.15,0.17-2.14-2.04C280.56,65.67,280.55,60.72,280.54,55.76
	C280.55,55.76,280.55,55.76,280.54,55.76z"/>
<path class="st1" d="M290.62,30.06c0,3.02-2.39,5.37-5.48,5.4c-3.28,0.03-5.65-2.27-5.62-5.47c0.03-3.13,2.29-5.37,5.43-5.4
	C288.18,24.56,290.62,26.92,290.62,30.06z"/>
</svg>
