<?xml version="1.0" encoding="utf-8"?>
<!-- Generator: Adobe Illustrator 25.3.1, SVG Export Plug-In . SVG Version: 6.00 Build 0)  -->
<svg version="1.1" id="Layer_1" xmlns="http://www.w3.org/2000/svg" xmlns:xlink="http://www.w3.org/1999/xlink" x="0px" y="0px"
	 viewBox="0 0 355.34 100" style="enable-background:new 0 0 355.34 100;" xml:space="preserve">
<style type="text/css">
	.st0{fill:#3E58A4;}
	.st1{fill:#1B1D34;}
</style>
<path class="st0" d="M1055.04-75.86c11.07,0.14,19.6-4.47,24.79-14.2c5.93-11.12,5.11-22.27-1.83-32.7
	c-4.68-7.04-11.75-10.56-20.09-11c-7.26-0.38-14.55-0.17-21.83-0.19c-1.62-0.01-1.67,0.05-1.67,1.82c-0.01,8.08,0,16.16,0.01,24.24
	c0.01,14.4,0.02,28.8,0.03,43.19c0,0.4-0.01,0.8,0,1.2c0.02,0.77-0.29,1.2-1.12,1.19c-3.6-0.02-7.2-0.02-10.8-0.03
	c-0.7,0-1.01-0.36-0.99-1.05c0.01-0.56,0-1.12,0-1.68c0-26.32,0-52.63,0.02-78.95c0-3.03-0.6-2.93,2.97-2.94
	c10.24-0.02,20.48-0.03,30.71-0.04c6.48-0.01,12.73,1.14,18.58,4.02c11.29,5.57,18.54,14.43,21.46,26.71
	c2.44,10.28,1.8,20.39-2.53,30.05c-4.6,10.25-12.22,17.43-22.9,21.23c-5.1,1.82-10.33,2.73-15.75,2.65
	c-3.68-0.05-7.36,0.03-11.04,0.04c-2.39,0.01-2.37,0.21-2.37-2.32c0.02-10,0.02-20,0.02-30c0-6.72-0.07-13.44,0.01-20.16
	c0.07-5.92,4.09-10.72,9.85-12.01c6.7-1.5,13.68,3.57,14.24,10.44c0.19,2.3,0.07,4.63,0.08,6.95c0.04,7.76-0.02,15.52,0.17,23.27
	c0.07,2.79-0.96,4.52-3.32,5.79C1059.39-79.06,1057.03-77.76,1055.04-75.86z"/>
<path class="st1" d="M1143.99-111.78c0-4.9,0-9.2,0-13.5c0-0.56,0.02-1.12,0-1.68c-0.02-0.68,0.22-1.04,0.96-1.03
	c2.4,0.01,4.8-0.01,7.2-0.02c0.56,0,0.91,0.22,0.91,0.83c0,0.48,0,0.96,0,1.44c0,13.84,0,27.68,0,41.52c0,0.48-0.03,0.96,0,1.44
	c0.07,0.95-0.4,1.25-1.29,1.24c-2.08-0.03-4.16-0.06-6.24,0.03c-1.29,0.06-1.75-0.42-1.58-1.67c0.07-0.47,0.01-0.95,0.01-1.42
	c-0.21-0.01-0.44-0.08-0.49-0.01c-3.79,4.87-13.88,5.05-19.48,0.3c-5.15-4.36-7-9.97-6.21-16.52c0.81-6.74,4.19-11.75,10.66-14.12
	C1133.88-116.92,1139.13-116.41,1143.99-111.78z M1135.38-89.6c5.02,0.26,8.58-4.51,8.55-8.74c-0.03-5.21-3.74-9.07-8.79-9.03
	c-4.86,0.04-8.41,3.73-8.44,8.78C1126.68-93.17,1130.13-89.6,1135.38-89.6z"/>
<path class="st1" d="M1214.3-80.89c-10.22,0.19-17.39-7.75-17.54-17.01c-0.15-9.2,6.27-17.8,17.63-18.08
	c7.76-0.2,17.85,5.47,17.83,17.85C1232.2-89.44,1225.22-80.66,1214.3-80.89z M1222.95-98.27c0.03-5.04-3.72-9.1-8.54-9
	c-4.69,0.1-8.36,3.38-8.49,8.52c-0.12,5.07,3.55,9.01,8.43,9.1C1219.15-89.55,1222.92-93.33,1222.95-98.27z"/>
<path class="st1" d="M1175.39-80.91c-11.2,0.16-17.67-9.22-17.53-17.58c0.17-10.02,7.62-17.51,17.68-17.48
	c10.16,0.03,17.92,7.68,17.81,17.62C1193.24-88.19,1185.18-80.53,1175.39-80.91z M1167.02-98.58c-0.06,5.03,3.65,8.89,8.59,8.94
	c4.72,0.05,8.59-3.84,8.64-8.67c0.05-4.95-3.75-8.89-8.63-8.97C1170.88-107.35,1167.08-103.5,1167.02-98.58z"/>
<path class="st1" d="M1306.94-93.29c1.57,3.52,4.32,4.47,7.72,4.18c0.66-0.06,1.27-0.21,1.82-0.53c1.63-0.95,1.69-2.82,0.12-3.85
	c-1.08-0.7-2.31-1.07-3.54-1.38c-2.24-0.57-4.44-1.25-6.57-2.16c-3.44-1.47-5.64-3.86-5.73-7.78c-0.09-4.07,1.35-7.4,5.06-9.35
	c5.48-2.89,13.11-2.51,17.93,1.84c0.47,0.43,0.92,0.89,1.32,1.38c1.52,1.85,1.51,1.93-0.5,3.06c-0.97,0.54-1.96,1.07-2.94,1.59
	c-0.77,0.41-1.53,1.03-2.34,1.11c-0.84,0.08-0.99-1.11-1.64-1.57c-1.33-0.96-2.8-1.49-4.44-1.55c-0.84-0.03-1.57,0.3-2.21,0.78
	c-1.45,1.09-1.34,2.86,0.32,3.65c1.21,0.58,2.54,0.92,3.83,1.28c1.99,0.56,3.98,1.13,5.88,1.96c3.57,1.56,5.77,4.12,5.95,8.2
	c0.19,4.29-1.17,7.75-5.21,9.66c-5.82,2.74-11.69,2.79-17.45-0.25c-2.05-1.08-3.41-2.83-4.47-4.86c-0.45-0.86-0.53-1.37,0.49-1.87
	C1302.47-90.82,1304.54-92,1306.94-93.29z"/>
<path class="st1" d="M1342.23-124.58c0,1.58-0.05,3.01,0.01,4.45c0.07,1.58-0.65,3.57,0.33,4.64c1.01,1.1,3.03,0.26,4.59,0.41
	c0.48,0.04,0.96,0.03,1.44,0c0.78-0.04,1.18,0.25,1.17,1.09c-0.02,2-0.03,4,0.02,6c0.02,0.95-0.35,1.27-1.26,1.24
	c-1.68-0.06-3.36-0.01-5.04-0.07c-0.91-0.03-1.29,0.26-1.28,1.22c0.04,4.16-0.02,8.32,0.06,12.48c0.04,2.04,0.82,2.77,2.84,3.23
	c1.19,0.27,2.39,0.2,3.58,0.15c0.8-0.04,1.16,0.23,1.15,1.08c-0.02,2,0.03,4,0.06,6c0.01,0.63-0.16,1.13-0.89,1.15
	c-2.71,0.07-5.45,0.45-8.13-0.15c-4.99-1.11-7.59-4.41-7.71-9.84c-0.1-4.4-0.02-8.8-0.04-13.2c-0.01-2.07-0.02-2.07-2.09-2.09
	c-3.25-0.04-3.25-0.04-3.29-3.29c-0.02-1.28,0.03-2.56-0.02-3.84c-0.05-0.97,0.39-1.28,1.28-1.19c0.32,0.03,0.64,0,0.96,0
	c3.2-0.02,3.2-0.02,3.21-3.33c0-3.7,0-3.7,3.53-4.77c1.6-0.48,3.2-0.95,4.81-1.42C1341.65-124.67,1341.83-124.61,1342.23-124.58z"/>
<path class="st1" d="M1271.33-105.73c0-7.27-0.01-14.54,0-21.8c0-2.23,0.03-2.24,2.22-2.25c1.84-0.01,3.67,0.01,5.51-0.04
	c0.94-0.03,1.32,0.35,1.24,1.27c-0.03,0.4-0.01,0.8-0.01,1.2c0.01,14.38,0.02,28.75,0.02,43.13c0,0.48-0.03,0.96,0.01,1.44
	c0.06,0.9-0.28,1.3-1.23,1.28c-2.16-0.04-4.31-0.05-6.47,0.02c-1.14,0.04-1.31-0.55-1.31-1.48c0.02-3.35,0.01-6.71,0.01-10.06
	C1271.34-97.26,1271.34-101.49,1271.33-105.73z"/>
<path class="st1" d="M1246.43-110.41c0.53-0.66,1.04-1.34,1.59-1.99c1.94-2.28,4.53-3.15,7.4-3.44c0.81-0.08,1.21,0.22,1.21,1.04
	c0.01,2.56,0.01,5.12,0.04,7.68c0.01,0.79-0.33,1.19-1.14,1.15c-0.48-0.02-0.96,0-1.44,0.02c-4.57,0.19-7.78,3.35-7.88,7.97
	c-0.1,4.64-0.04,9.28-0.04,13.92c0,0.48-0.02,0.96-0.01,1.44c0.02,0.67-0.25,1.09-0.96,1.09c-2.4,0.01-4.8,0-7.2,0
	c-0.58,0-0.89-0.27-0.91-0.85c-0.01-0.4-0.01-0.8-0.01-1.2c0-9.84,0-19.68,0-29.52c0-2-0.23-1.98,1.91-1.97
	c1.92,0.01,3.84,0.02,5.76-0.02c0.89-0.02,1.33,0.25,1.28,1.23c-0.06,1.11-0.01,2.23-0.01,3.34
	C1246.15-110.49,1246.29-110.45,1246.43-110.41z"/>
<path class="st1" d="M1286.54-98.43c0-4.88,0-9.75,0-14.63c0-2.21-0.17-2.01,2.11-2.01c1.6,0,3.2-0.01,4.8,0
	c2.11,0.01,2.13,0.01,2.13,2.01c0.02,6.87,0.02,13.75,0.03,20.62c0,2.88-0.02,5.76,0,8.63c0.02,2.39,0.16,2.31-2.38,2.29
	c-1.52-0.01-3.04-0.01-4.56,0c-2.11,0.01-2.15,0.17-2.14-2.04C1286.56-88.52,1286.55-93.47,1286.54-98.43
	C1286.55-98.43,1286.55-98.43,1286.54-98.43z"/>
<path class="st1" d="M1296.62-124.13c0,3.02-2.39,5.37-5.48,5.4c-3.28,0.03-5.65-2.27-5.62-5.47c0.03-3.13,2.29-5.37,5.43-5.4
	C1294.18-129.62,1296.62-127.27,1296.62-124.13z"/>
<g>
	<path class="st0" d="M5.42,45.22c0-11.75,0.03-23.51-0.02-35.26c-0.01-2.89,1.86-5.39,5.36-5.35C22.06,4.74,33.37,4.5,44.67,4.74
		C61.51,5.1,76.25,17.46,79.86,33.9c3.66,16.66-4.43,33.54-19.64,41.22c-6.61,3.33-13.63,4.39-20.93,4.1
		c-1.66-0.07-2.63-1.03-2.82-2.69c-0.06-0.49-0.03-0.99-0.03-1.48c0-16.36,0-32.71,0-49.07c0-2.64-1-3.63-3.66-3.63
		c-7.65,0-15.3-0.01-22.95,0.02c-0.51,0-1.02,0.31-1.53,0.47c0.3,0.44,0.51,1.01,0.92,1.31c4.75,3.53,9.52,7.04,14.31,10.51
		c1.74,1.26,2.59,2.87,2.59,5.02c-0.02,18.37-0.01,36.74,0,55.11c0,0.95-0.13,1.84-1.06,2.32c-0.92,0.48-1.65-0.08-2.36-0.59
		c-4.8-3.47-9.56-6.98-14.4-10.38c-2.01-1.42-2.88-3.25-2.87-5.65c0.02-9.66,0.01-19.32,0-28.97C5.43,49.41,5.43,47.31,5.42,45.22
		C5.42,45.22,5.42,45.22,5.42,45.22z"/>
</g>
<g>
	<path class="st1" d="M117.34,43.05c0-5.24,0-9.84,0-14.44c0-0.6,0.02-1.2,0-1.8c-0.03-0.72,0.24-1.11,1.02-1.11
		c2.57,0.01,5.13-0.01,7.7-0.02c0.6,0,0.97,0.23,0.97,0.89c0,0.51,0,1.03,0,1.54c0,14.81,0,29.61,0,44.42c0,0.51-0.03,1.03,0,1.54
		c0.07,1.02-0.42,1.34-1.38,1.33c-2.22-0.03-4.45-0.07-6.67,0.03c-1.38,0.06-1.88-0.45-1.69-1.78c0.07-0.5,0.01-1.02,0.01-1.52
		c-0.22-0.01-0.47-0.09-0.52-0.01c-4.05,5.21-14.85,5.4-20.84,0.32c-5.51-4.67-7.48-10.67-6.65-17.67c0.86-7.2,4.48-12.57,11.4-15.1
		C106.53,37.55,112.15,38.09,117.34,43.05z M108.14,66.77c5.37,0.28,9.17-4.82,9.15-9.34c-0.03-5.58-4-9.7-9.4-9.65
		c-5.2,0.04-9,3.99-9.03,9.4C98.83,62.95,102.52,66.77,108.14,66.77z"/>
	<path class="st1" d="M192.55,76.08c-10.94,0.2-18.6-8.29-18.76-18.2c-0.16-9.84,6.71-19.04,18.85-19.34
		c8.3-0.21,19.1,5.85,19.07,19.1C211.7,66.94,204.23,76.33,192.55,76.08z M201.8,57.5c0.04-5.4-3.98-9.74-9.14-9.62
		c-5.01,0.11-8.95,3.61-9.08,9.11c-0.13,5.43,3.8,9.63,9.02,9.73C197.74,66.82,201.77,62.78,201.8,57.5z"/>
	<path class="st1" d="M150.94,76.06c-11.98,0.17-18.9-9.86-18.75-18.81c0.18-10.72,8.16-18.73,18.91-18.7
		c10.87,0.03,19.16,8.22,19.05,18.84C170.03,68.28,161.41,76.47,150.94,76.06z M141.98,57.16c-0.07,5.38,3.9,9.51,9.19,9.56
		c5.05,0.05,9.19-4.11,9.24-9.27c0.05-5.29-4.02-9.51-9.23-9.59C146.11,47.79,142.04,51.9,141.98,57.16z"/>
	<path class="st1" d="M291.64,62.83c1.68,3.76,4.62,4.78,8.26,4.47c0.7-0.06,1.36-0.23,1.95-0.57c1.74-1.01,1.81-3.02,0.12-4.12
		c-1.15-0.75-2.47-1.15-3.79-1.48c-2.4-0.61-4.75-1.34-7.03-2.31c-3.68-1.57-6.04-4.12-6.13-8.32c-0.1-4.35,1.45-7.92,5.41-10.01
		c5.87-3.09,14.02-2.69,19.18,1.97c0.51,0.46,0.98,0.95,1.41,1.48c1.63,1.97,1.61,2.07-0.54,3.27c-1.04,0.58-2.09,1.15-3.15,1.71
		c-0.82,0.43-1.64,1.1-2.5,1.18c-0.9,0.09-1.06-1.18-1.75-1.68c-1.43-1.02-3-1.6-4.75-1.66c-0.9-0.03-1.68,0.32-2.37,0.83
		c-1.55,1.17-1.43,3.06,0.34,3.9c1.29,0.62,2.71,0.98,4.1,1.37c2.13,0.6,4.26,1.21,6.29,2.1c3.82,1.67,6.17,4.41,6.37,8.77
		c0.21,4.59-1.25,8.29-5.57,10.33c-6.23,2.94-12.5,2.99-18.67-0.27c-2.19-1.16-3.65-3.02-4.78-5.2c-0.48-0.92-0.57-1.46,0.53-2
		C286.86,65.47,289.08,64.2,291.64,62.83z"/>
	<path class="st1" d="M329.39,29.35c0,1.69-0.05,3.22,0.01,4.76c0.07,1.69-0.69,3.81,0.36,4.96c1.08,1.18,3.24,0.28,4.91,0.43
		c0.51,0.05,1.03,0.03,1.54,0c0.84-0.04,1.26,0.27,1.25,1.17c-0.03,2.14-0.04,4.28,0.02,6.42c0.03,1.01-0.37,1.36-1.35,1.33
		c-1.8-0.06-3.59-0.01-5.39-0.08c-0.97-0.04-1.38,0.28-1.37,1.3c0.04,4.45-0.02,8.9,0.06,13.35c0.04,2.18,0.88,2.96,3.04,3.46
		c1.28,0.29,2.55,0.21,3.83,0.16c0.86-0.04,1.24,0.24,1.23,1.16c-0.02,2.14,0.03,4.28,0.06,6.42c0.01,0.67-0.17,1.21-0.95,1.23
		c-2.9,0.07-5.83,0.48-8.7-0.16c-5.33-1.19-8.12-4.72-8.25-10.53c-0.1-4.7-0.02-9.41-0.04-14.12c-0.01-2.22-0.03-2.22-2.24-2.24
		c-3.47-0.04-3.48-0.04-3.52-3.51c-0.02-1.37,0.04-2.74-0.03-4.11c-0.05-1.04,0.42-1.37,1.37-1.27c0.34,0.03,0.68,0.01,1.03,0
		c3.43-0.02,3.43-0.02,3.43-3.57c0-3.96,0-3.96,3.78-5.1c1.71-0.51,3.43-1.02,5.14-1.52C328.77,29.26,328.96,29.32,329.39,29.35z"/>
	<path class="st1" d="M253.56,49.52c0-7.77-0.01-15.55,0-23.32c0-2.39,0.03-2.39,2.38-2.41c1.96-0.01,3.93,0.02,5.89-0.04
		c1-0.03,1.41,0.38,1.33,1.36c-0.03,0.42-0.01,0.85-0.01,1.28c0.01,15.38,0.02,30.75,0.03,46.13c0,0.51-0.03,1.03,0.01,1.54
		c0.07,0.96-0.3,1.39-1.32,1.37c-2.31-0.04-4.61-0.05-6.92,0.02c-1.22,0.04-1.4-0.58-1.4-1.58c0.03-3.59,0.01-7.18,0.01-10.76
		C253.56,58.58,253.56,54.05,253.56,49.52z"/>
	<path class="st1" d="M226.91,44.51c0.57-0.71,1.12-1.44,1.7-2.13c2.07-2.44,4.85-3.37,7.92-3.68c0.87-0.09,1.29,0.24,1.3,1.11
		c0.01,2.74,0.02,5.48,0.04,8.22c0.01,0.85-0.35,1.27-1.22,1.23c-0.51-0.02-1.03,0-1.54,0.02c-4.88,0.2-8.32,3.59-8.43,8.53
		c-0.11,4.96-0.04,9.93-0.05,14.89c0,0.51-0.02,1.03-0.01,1.54c0.02,0.71-0.27,1.16-1.02,1.16c-2.57,0.01-5.13,0-7.7,0
		c-0.62,0-0.96-0.29-0.97-0.91c-0.01-0.43-0.01-0.86-0.01-1.28c0-10.53,0-21.05,0-31.58c0-2.14-0.24-2.12,2.05-2.11
		c2.05,0.01,4.11,0.02,6.16-0.02c0.96-0.02,1.42,0.27,1.37,1.31c-0.07,1.19-0.02,2.38-0.02,3.58
		C226.62,44.43,226.77,44.47,226.91,44.51z"/>
	<path class="st1" d="M269.83,57.33c0-5.22,0-10.43,0-15.65c0-2.37-0.18-2.15,2.25-2.15c1.71,0,3.42-0.01,5.13,0
		c2.26,0.01,2.27,0.01,2.28,2.15c0.02,7.35,0.03,14.71,0.03,22.06c0,3.08-0.02,6.16,0,9.23c0.02,2.56,0.17,2.47-2.55,2.45
		c-1.62-0.01-3.25-0.01-4.87,0c-2.26,0.01-2.29,0.18-2.28-2.19C269.85,67.93,269.83,62.63,269.83,57.33
		C269.83,57.33,269.83,57.33,269.83,57.33z"/>
	<path class="st1" d="M280.6,29.84c0,3.23-2.56,5.75-5.87,5.78c-3.51,0.03-6.04-2.42-6.01-5.85c0.03-3.34,2.45-5.74,5.81-5.78
		C277.99,23.96,280.6,26.48,280.6,29.84z"/>
</g>
</svg>
